<mxfile host="app.diagrams.net" modified="2022-03-14T04:23:52.028Z" agent="5.0 (Windows)" etag="mvjqD0DN494wI1dq_xdL" version="17.1.2" type="github">
  <diagram id="C5RBs43oDa-KdzZeNtuy" name="Page-1">
    <mxGraphModel dx="1303" dy="700" grid="1" gridSize="10" guides="1" tooltips="1" connect="1" arrows="1" fold="1" page="1" pageScale="1" pageWidth="827" pageHeight="1169" math="0" shadow="0">
      <root>
        <mxCell id="WIyWlLk6GJQsqaUBKTNV-0" />
        <mxCell id="WIyWlLk6GJQsqaUBKTNV-1" parent="WIyWlLk6GJQsqaUBKTNV-0" />
        <mxCell id="DUWaK7dwKqKoK8aUCCzJ-2" value="" style="edgeStyle=orthogonalEdgeStyle;rounded=0;orthogonalLoop=1;jettySize=auto;html=1;" edge="1" parent="WIyWlLk6GJQsqaUBKTNV-1" source="DUWaK7dwKqKoK8aUCCzJ-0" target="DUWaK7dwKqKoK8aUCCzJ-1">
          <mxGeometry relative="1" as="geometry" />
        </mxCell>
        <mxCell id="DUWaK7dwKqKoK8aUCCzJ-0" value="Start" style="rounded=1;whiteSpace=wrap;html=1;" vertex="1" parent="WIyWlLk6GJQsqaUBKTNV-1">
          <mxGeometry x="340" y="40" width="120" height="60" as="geometry" />
        </mxCell>
        <mxCell id="DUWaK7dwKqKoK8aUCCzJ-8" value="" style="edgeStyle=orthogonalEdgeStyle;rounded=0;orthogonalLoop=1;jettySize=auto;html=1;" edge="1" parent="WIyWlLk6GJQsqaUBKTNV-1" source="DUWaK7dwKqKoK8aUCCzJ-1" target="DUWaK7dwKqKoK8aUCCzJ-7">
          <mxGeometry relative="1" as="geometry" />
        </mxCell>
        <mxCell id="DUWaK7dwKqKoK8aUCCzJ-1" value="Input a" style="shape=parallelogram;perimeter=parallelogramPerimeter;whiteSpace=wrap;html=1;fixedSize=1;rounded=1;" vertex="1" parent="WIyWlLk6GJQsqaUBKTNV-1">
          <mxGeometry x="340" y="130" width="120" height="60" as="geometry" />
        </mxCell>
        <mxCell id="DUWaK7dwKqKoK8aUCCzJ-12" value="" style="edgeStyle=orthogonalEdgeStyle;rounded=0;orthogonalLoop=1;jettySize=auto;html=1;" edge="1" parent="WIyWlLk6GJQsqaUBKTNV-1" source="DUWaK7dwKqKoK8aUCCzJ-7" target="DUWaK7dwKqKoK8aUCCzJ-11">
          <mxGeometry relative="1" as="geometry" />
        </mxCell>
        <mxCell id="DUWaK7dwKqKoK8aUCCzJ-15" value="" style="edgeStyle=orthogonalEdgeStyle;rounded=0;orthogonalLoop=1;jettySize=auto;html=1;" edge="1" parent="WIyWlLk6GJQsqaUBKTNV-1" source="DUWaK7dwKqKoK8aUCCzJ-7" target="DUWaK7dwKqKoK8aUCCzJ-14">
          <mxGeometry relative="1" as="geometry" />
        </mxCell>
        <mxCell id="DUWaK7dwKqKoK8aUCCzJ-7" value="If a = 0" style="rhombus;whiteSpace=wrap;html=1;rounded=1;" vertex="1" parent="WIyWlLk6GJQsqaUBKTNV-1">
          <mxGeometry x="320" y="220" width="160" height="80" as="geometry" />
        </mxCell>
        <mxCell id="DUWaK7dwKqKoK8aUCCzJ-11" value="Print a = 0" style="shape=parallelogram;perimeter=parallelogramPerimeter;whiteSpace=wrap;html=1;fixedSize=1;" vertex="1" parent="WIyWlLk6GJQsqaUBKTNV-1">
          <mxGeometry x="540" y="230" width="120" height="60" as="geometry" />
        </mxCell>
        <mxCell id="DUWaK7dwKqKoK8aUCCzJ-13" value="True" style="text;html=1;align=center;verticalAlign=middle;resizable=0;points=[];autosize=1;strokeColor=none;fillColor=none;" vertex="1" parent="WIyWlLk6GJQsqaUBKTNV-1">
          <mxGeometry x="480" y="240" width="40" height="20" as="geometry" />
        </mxCell>
        <mxCell id="DUWaK7dwKqKoK8aUCCzJ-20" value="" style="edgeStyle=orthogonalEdgeStyle;rounded=0;orthogonalLoop=1;jettySize=auto;html=1;" edge="1" parent="WIyWlLk6GJQsqaUBKTNV-1" source="DUWaK7dwKqKoK8aUCCzJ-14" target="DUWaK7dwKqKoK8aUCCzJ-19">
          <mxGeometry relative="1" as="geometry" />
        </mxCell>
        <mxCell id="DUWaK7dwKqKoK8aUCCzJ-23" value="" style="edgeStyle=orthogonalEdgeStyle;rounded=0;orthogonalLoop=1;jettySize=auto;html=1;" edge="1" parent="WIyWlLk6GJQsqaUBKTNV-1" source="DUWaK7dwKqKoK8aUCCzJ-14" target="DUWaK7dwKqKoK8aUCCzJ-22">
          <mxGeometry relative="1" as="geometry" />
        </mxCell>
        <mxCell id="DUWaK7dwKqKoK8aUCCzJ-14" value="If a &amp;gt; 0" style="rhombus;whiteSpace=wrap;html=1;rounded=1;" vertex="1" parent="WIyWlLk6GJQsqaUBKTNV-1">
          <mxGeometry x="320" y="340" width="160" height="80" as="geometry" />
        </mxCell>
        <mxCell id="DUWaK7dwKqKoK8aUCCzJ-16" value="False" style="text;html=1;align=center;verticalAlign=middle;resizable=0;points=[];autosize=1;strokeColor=none;fillColor=none;" vertex="1" parent="WIyWlLk6GJQsqaUBKTNV-1">
          <mxGeometry x="400" y="300" width="40" height="20" as="geometry" />
        </mxCell>
        <mxCell id="DUWaK7dwKqKoK8aUCCzJ-19" value="Print &quot;a nguyên dương&quot;" style="shape=parallelogram;perimeter=parallelogramPerimeter;whiteSpace=wrap;html=1;fixedSize=1;" vertex="1" parent="WIyWlLk6GJQsqaUBKTNV-1">
          <mxGeometry x="540" y="350" width="120" height="60" as="geometry" />
        </mxCell>
        <mxCell id="DUWaK7dwKqKoK8aUCCzJ-21" value="True" style="text;html=1;align=center;verticalAlign=middle;resizable=0;points=[];autosize=1;strokeColor=none;fillColor=none;" vertex="1" parent="WIyWlLk6GJQsqaUBKTNV-1">
          <mxGeometry x="490" y="360" width="40" height="20" as="geometry" />
        </mxCell>
        <mxCell id="DUWaK7dwKqKoK8aUCCzJ-26" value="" style="edgeStyle=orthogonalEdgeStyle;rounded=0;orthogonalLoop=1;jettySize=auto;html=1;" edge="1" parent="WIyWlLk6GJQsqaUBKTNV-1" source="DUWaK7dwKqKoK8aUCCzJ-22" target="DUWaK7dwKqKoK8aUCCzJ-25">
          <mxGeometry relative="1" as="geometry" />
        </mxCell>
        <mxCell id="DUWaK7dwKqKoK8aUCCzJ-29" value="" style="edgeStyle=orthogonalEdgeStyle;rounded=0;orthogonalLoop=1;jettySize=auto;html=1;" edge="1" parent="WIyWlLk6GJQsqaUBKTNV-1" source="DUWaK7dwKqKoK8aUCCzJ-22" target="DUWaK7dwKqKoK8aUCCzJ-28">
          <mxGeometry relative="1" as="geometry" />
        </mxCell>
        <mxCell id="DUWaK7dwKqKoK8aUCCzJ-22" value="If a &amp;lt; 0" style="rhombus;whiteSpace=wrap;html=1;rounded=1;" vertex="1" parent="WIyWlLk6GJQsqaUBKTNV-1">
          <mxGeometry x="320" y="460" width="160" height="80" as="geometry" />
        </mxCell>
        <mxCell id="DUWaK7dwKqKoK8aUCCzJ-24" value="False" style="text;html=1;align=center;verticalAlign=middle;resizable=0;points=[];autosize=1;strokeColor=none;fillColor=none;" vertex="1" parent="WIyWlLk6GJQsqaUBKTNV-1">
          <mxGeometry x="410" y="430" width="40" height="20" as="geometry" />
        </mxCell>
        <mxCell id="DUWaK7dwKqKoK8aUCCzJ-25" value="Print &quot;a nguyên âm&quot;" style="shape=parallelogram;perimeter=parallelogramPerimeter;whiteSpace=wrap;html=1;fixedSize=1;" vertex="1" parent="WIyWlLk6GJQsqaUBKTNV-1">
          <mxGeometry x="535" y="470" width="130" height="60" as="geometry" />
        </mxCell>
        <mxCell id="DUWaK7dwKqKoK8aUCCzJ-27" value="True" style="text;html=1;align=center;verticalAlign=middle;resizable=0;points=[];autosize=1;strokeColor=none;fillColor=none;" vertex="1" parent="WIyWlLk6GJQsqaUBKTNV-1">
          <mxGeometry x="480" y="470" width="40" height="20" as="geometry" />
        </mxCell>
        <mxCell id="DUWaK7dwKqKoK8aUCCzJ-28" value="End" style="whiteSpace=wrap;html=1;rounded=1;" vertex="1" parent="WIyWlLk6GJQsqaUBKTNV-1">
          <mxGeometry x="340" y="570" width="120" height="60" as="geometry" />
        </mxCell>
        <mxCell id="DUWaK7dwKqKoK8aUCCzJ-32" value="" style="edgeStyle=orthogonalEdgeStyle;rounded=0;orthogonalLoop=1;jettySize=auto;html=1;entryX=0.691;entryY=0.222;entryDx=0;entryDy=0;entryPerimeter=0;exitX=0.371;exitY=0.987;exitDx=0;exitDy=0;exitPerimeter=0;" edge="1" parent="WIyWlLk6GJQsqaUBKTNV-1" source="DUWaK7dwKqKoK8aUCCzJ-11" target="DUWaK7dwKqKoK8aUCCzJ-14">
          <mxGeometry relative="1" as="geometry">
            <mxPoint x="490" y="270" as="sourcePoint" />
            <mxPoint x="560" y="270" as="targetPoint" />
            <Array as="points">
              <mxPoint x="585" y="293" />
              <mxPoint x="490" y="293" />
              <mxPoint x="490" y="358" />
            </Array>
          </mxGeometry>
        </mxCell>
        <mxCell id="DUWaK7dwKqKoK8aUCCzJ-33" value="" style="edgeStyle=orthogonalEdgeStyle;rounded=0;orthogonalLoop=1;jettySize=auto;html=1;entryX=0.691;entryY=0.222;entryDx=0;entryDy=0;entryPerimeter=0;exitX=0.371;exitY=0.987;exitDx=0;exitDy=0;exitPerimeter=0;" edge="1" parent="WIyWlLk6GJQsqaUBKTNV-1">
          <mxGeometry relative="1" as="geometry">
            <mxPoint x="593.96" y="410.0000000000001" as="sourcePoint" />
            <mxPoint x="439.99999999999994" y="478.53999999999996" as="targetPoint" />
            <Array as="points">
              <mxPoint x="594" y="414" />
              <mxPoint x="470" y="414" />
              <mxPoint x="470" y="478" />
            </Array>
          </mxGeometry>
        </mxCell>
        <mxCell id="DUWaK7dwKqKoK8aUCCzJ-34" value="" style="edgeStyle=orthogonalEdgeStyle;rounded=0;orthogonalLoop=1;jettySize=auto;html=1;entryX=1;entryY=0.5;entryDx=0;entryDy=0;" edge="1" parent="WIyWlLk6GJQsqaUBKTNV-1" source="DUWaK7dwKqKoK8aUCCzJ-25" target="DUWaK7dwKqKoK8aUCCzJ-28">
          <mxGeometry relative="1" as="geometry">
            <mxPoint x="410.04761904761904" y="549.9761904761905" as="sourcePoint" />
            <mxPoint x="510" y="600" as="targetPoint" />
            <Array as="points">
              <mxPoint x="560" y="600" />
            </Array>
          </mxGeometry>
        </mxCell>
      </root>
    </mxGraphModel>
  </diagram>
</mxfile>
